<?xml version="1.0" encoding="utf-8"?>

<svg width="22" height="22" viewBox="0 0 22 22" fill="none" xmlns="http://www.w3.org/2000/svg">
<g opacity="0.702869">
<mask id="path-1-outside-1" maskUnits="userSpaceOnUse" x="0" y="0" width="22" height="22" fill="black">
<rect fill="white" width="22" height="22"/>
<path fill-rule="evenodd" clip-rule="evenodd" d="M12.7711 7.66019C12.5021 7.91009 12.1791 8.03505 11.7996 8.03505C11.4217 8.03505 11.0956 7.91009 10.8244 7.66019C10.5547 7.41028 10.4183 7.10628 10.4183 6.75124C10.4183 6.39695 10.5554 6.09219 10.8244 5.84C11.0956 5.58705 11.4217 5.46133 11.7996 5.46133C12.1791 5.46133 12.5029 5.58705 12.7711 5.84C13.0408 6.09219 13.1749 6.39695 13.1749 6.75124C13.1749 7.10705 13.0408 7.41028 12.7711 7.66019ZM12.8739 15.9474C12.4099 16.131 12.0411 16.2689 11.7646 16.3657C11.4888 16.4617 11.168 16.5097 10.803 16.5097C10.2423 16.5097 9.80571 16.3726 9.49486 16.099C9.184 15.8255 9.02933 15.4789 9.02933 15.0568C9.02933 14.8937 9.04076 14.7261 9.06362 14.5547C9.08724 14.3848 9.12457 14.1928 9.17562 13.9771L9.75543 11.9291C9.80647 11.7326 9.85066 11.5459 9.88571 11.3722C9.92076 11.1969 9.93752 11.0362 9.93752 10.8899C9.93752 10.6293 9.88343 10.4465 9.776 10.3436C9.66705 10.2408 9.46209 10.1905 9.15657 10.1905C9.00724 10.1905 8.85333 10.2126 8.69562 10.259C8.53943 10.307 8.40381 10.3505 8.29257 10.3931L8.44571 9.76228C8.82514 9.60761 9.18857 9.47504 9.53524 9.36533C9.8819 9.25409 10.2095 9.19923 10.5181 9.19923C11.075 9.19923 11.5048 9.33485 11.8072 9.60304C12.1082 9.87199 12.2598 10.2217 12.2598 10.6514C12.2598 10.7406 12.2491 10.8975 12.2286 11.1215C12.2088 11.3463 12.1691 11.5512 12.1135 11.7394L11.536 13.7813C11.4888 13.9451 11.4469 14.1326 11.4088 14.3421C11.3714 14.5509 11.3531 14.7109 11.3531 14.819C11.3531 15.0895 11.4133 15.2754 11.5352 15.3737C11.6556 15.4712 11.8667 15.5215 12.1653 15.5215C12.307 15.5215 12.4648 15.4964 12.6423 15.4476C12.819 15.3989 12.947 15.3554 13.0278 15.3181L12.8739 15.9474ZM10.9996 2C6.02971 2 2 6.02971 2 10.9996C2 15.9695 6.02971 20 10.9996 20C15.9695 20 20 15.9695 20 10.9996C20 6.02971 15.9695 2 10.9996 2Z"/>
</mask>
<path fill-rule="evenodd" clip-rule="evenodd" d="M12.7711 7.66019C12.5021 7.91009 12.1791 8.03505 11.7996 8.03505C11.4217 8.03505 11.0956 7.91009 10.8244 7.66019C10.5547 7.41028 10.4183 7.10628 10.4183 6.75124C10.4183 6.39695 10.5554 6.09219 10.8244 5.84C11.0956 5.58705 11.4217 5.46133 11.7996 5.46133C12.1791 5.46133 12.5029 5.58705 12.7711 5.84C13.0408 6.09219 13.1749 6.39695 13.1749 6.75124C13.1749 7.10705 13.0408 7.41028 12.7711 7.66019ZM12.8739 15.9474C12.4099 16.131 12.0411 16.2689 11.7646 16.3657C11.4888 16.4617 11.168 16.5097 10.803 16.5097C10.2423 16.5097 9.80571 16.3726 9.49486 16.099C9.184 15.8255 9.02933 15.4789 9.02933 15.0568C9.02933 14.8937 9.04076 14.7261 9.06362 14.5547C9.08724 14.3848 9.12457 14.1928 9.17562 13.9771L9.75543 11.9291C9.80647 11.7326 9.85066 11.5459 9.88571 11.3722C9.92076 11.1969 9.93752 11.0362 9.93752 10.8899C9.93752 10.6293 9.88343 10.4465 9.776 10.3436C9.66705 10.2408 9.46209 10.1905 9.15657 10.1905C9.00724 10.1905 8.85333 10.2126 8.69562 10.259C8.53943 10.307 8.40381 10.3505 8.29257 10.3931L8.44571 9.76228C8.82514 9.60761 9.18857 9.47504 9.53524 9.36533C9.8819 9.25409 10.2095 9.19923 10.5181 9.19923C11.075 9.19923 11.5048 9.33485 11.8072 9.60304C12.1082 9.87199 12.2598 10.2217 12.2598 10.6514C12.2598 10.7406 12.2491 10.8975 12.2286 11.1215C12.2088 11.3463 12.1691 11.5512 12.1135 11.7394L11.536 13.7813C11.4888 13.9451 11.4469 14.1326 11.4088 14.3421C11.3714 14.5509 11.3531 14.7109 11.3531 14.819C11.3531 15.0895 11.4133 15.2754 11.5352 15.3737C11.6556 15.4712 11.8667 15.5215 12.1653 15.5215C12.307 15.5215 12.4648 15.4964 12.6423 15.4476C12.819 15.3989 12.947 15.3554 13.0278 15.3181L12.8739 15.9474ZM10.9996 2C6.02971 2 2 6.02971 2 10.9996C2 15.9695 6.02971 20 10.9996 20C15.9695 20 20 15.9695 20 10.9996C20 6.02971 15.9695 2 10.9996 2Z" fill="white" fill-opacity="0.7"/>
<path d="M10.8244 7.66019L9.46507 9.12726L9.4692 9.13106L10.8244 7.66019ZM10.8244 5.84L9.46033 4.37734L9.45637 4.38105L10.8244 5.84ZM12.7711 5.84L11.3988 7.29496L11.4051 7.30087L12.7711 5.84ZM12.8739 15.9474L13.6098 17.8071L14.5711 17.4267L14.8167 16.4225L12.8739 15.9474ZM11.7646 16.3657L12.422 18.2546L12.425 18.2535L11.7646 16.3657ZM9.06362 14.5547L7.08264 14.2793L7.08116 14.2903L9.06362 14.5547ZM9.17562 13.9771L7.25125 13.4323L7.23942 13.4741L7.22942 13.5164L9.17562 13.9771ZM9.75543 11.9291L11.6798 12.4739L11.6857 12.453L11.6912 12.4318L9.75543 11.9291ZM9.88571 11.3722L11.8462 11.7677L11.8469 11.7644L9.88571 11.3722ZM9.776 10.3436L11.1592 8.89896L11.1489 8.88931L9.776 10.3436ZM8.69562 10.259L8.13028 8.34061L8.11917 8.34388L8.1081 8.34728L8.69562 10.259ZM8.29257 10.3931L6.34902 9.92133L5.44979 13.6256L9.00881 12.2605L8.29257 10.3931ZM8.44571 9.76228L7.69076 7.91024L6.74348 8.29638L6.50216 9.29048L8.44571 9.76228ZM9.53524 9.36533L10.1387 11.2721L10.1463 11.2697L9.53524 9.36533ZM11.8072 9.60304L13.14 8.11176L13.1341 8.10656L11.8072 9.60304ZM12.2286 11.1215L10.2369 10.9386L10.2363 10.9459L12.2286 11.1215ZM12.1135 11.7394L10.1955 11.1726L10.1922 11.1838L10.189 11.1951L12.1135 11.7394ZM11.536 13.7813L13.4577 14.3355L13.4605 14.3256L11.536 13.7813ZM11.4088 14.3421L9.44101 13.9843L9.43999 13.99L11.4088 14.3421ZM11.5352 15.3737L12.7942 13.8197L12.7906 13.8167L11.5352 15.3737ZM12.6423 15.4476L13.172 17.3762L13.1741 17.3756L12.6423 15.4476ZM13.0278 15.3181L14.9706 15.7932L15.9567 11.7608L12.1886 13.5027L13.0278 15.3181ZM11.4097 6.19505C11.45 6.15757 11.5169 6.11014 11.6064 6.07558C11.6949 6.04142 11.7659 6.03505 11.7996 6.03505V10.035C12.6671 10.035 13.4813 9.73039 14.1324 9.12533L11.4097 6.19505ZM11.7996 6.03505C11.8348 6.03505 11.9041 6.04164 11.9891 6.0743C12.075 6.10732 12.1398 6.15266 12.1796 6.18932L9.4692 9.13106C10.1213 9.73188 10.9356 10.035 11.7996 10.035V6.03505ZM12.1837 6.19313C12.2251 6.23149 12.2923 6.3088 12.3459 6.42861C12.4003 6.5502 12.4183 6.6658 12.4183 6.75124H8.41829C8.41829 7.68853 8.80584 8.51643 9.46507 9.12725L12.1837 6.19313ZM12.4183 6.75124C12.4183 6.8393 12.3996 6.95428 12.3465 7.07311C12.2945 7.18971 12.23 7.26368 12.1924 7.29894L9.45637 4.38105C8.80861 4.98844 8.41829 5.8116 8.41829 6.75124H12.4183ZM12.1884 7.30266C12.1487 7.33976 12.0829 7.38648 11.9948 7.42064C11.9076 7.45443 11.8362 7.46133 11.7996 7.46133V3.46133C10.9313 3.46133 10.1133 3.76839 9.46033 4.37734L12.1884 7.30266ZM11.7996 7.46133C11.7647 7.46133 11.6918 7.45473 11.6013 7.41949C11.5096 7.38378 11.4408 7.33458 11.3988 7.29494L14.1433 4.38506C13.49 3.76888 12.6698 3.46133 11.7996 3.46133V7.46133ZM11.4051 7.30087C11.364 7.26244 11.2976 7.18529 11.2451 7.06642C11.1919 6.94613 11.1749 6.83302 11.1749 6.75124H15.1749C15.1749 5.82304 14.7962 4.9955 14.137 4.37912L11.4051 7.30087ZM11.1749 6.75124C11.1749 6.67131 11.1914 6.55716 11.246 6.43422C11.3 6.31251 11.3686 6.23311 11.4117 6.19313L14.1304 9.12725C14.7959 8.51058 15.1749 7.68096 15.1749 6.75124H11.1749ZM12.138 14.0877C11.6903 14.2649 11.3479 14.3926 11.1041 14.4779L12.425 18.2535C12.7344 18.1453 13.1295 17.9972 13.6098 17.8071L12.138 14.0877ZM11.1071 14.4769C11.0882 14.4835 10.998 14.5097 10.803 14.5097V18.5097C11.338 18.5097 11.8894 18.44 12.422 18.2546L11.1071 14.4769ZM10.803 14.5097C10.6819 14.5097 10.6406 14.4945 10.6543 14.4988C10.6624 14.5013 10.6841 14.509 10.7146 14.5258C10.7456 14.5428 10.7807 14.5665 10.816 14.5975L8.17368 17.6005C8.96158 18.2938 9.92917 18.5097 10.803 18.5097V14.5097ZM10.816 14.5975C10.8568 14.6334 10.922 14.7068 10.9717 14.8182C11.021 14.9285 11.0293 15.0183 11.0293 15.0568H7.02933C7.02933 16.04 7.42115 16.9384 8.17368 17.6005L10.816 14.5975ZM11.0293 15.0568C11.0293 14.9871 11.0342 14.9078 11.0461 14.819L7.08116 14.2903C7.04729 14.5443 7.02933 14.8004 7.02933 15.0568H11.0293ZM11.0446 14.83C11.0573 14.7382 11.0811 14.61 11.1218 14.4379L7.22942 13.5164C7.16806 13.7755 7.11713 14.0313 7.08267 14.2793L11.0446 14.83ZM11.1 14.5219L11.6798 12.4739L7.83106 11.3843L7.25125 13.4323L11.1 14.5219ZM11.6912 12.4318C11.7487 12.2105 11.802 11.9868 11.8462 11.7677L7.92522 10.9766C7.89932 11.105 7.86425 11.2546 7.81964 11.4264L11.6912 12.4318ZM11.8469 11.7644C11.9036 11.4806 11.9375 11.1873 11.9375 10.8899H7.93752C7.93752 10.8851 7.93788 10.9133 7.92455 10.98L11.8469 11.7644ZM11.9375 10.8899C11.9375 10.4652 11.8701 9.57971 11.1591 8.899L8.39286 11.7882C8.13394 11.5403 8.0239 11.2761 7.97915 11.1248C7.95632 11.0476 7.9465 10.9873 7.94208 10.951C7.9376 10.9143 7.93752 10.8927 7.93752 10.8899H11.9375ZM11.1489 8.88931C10.4338 8.21418 9.51543 8.19047 9.15657 8.19047V12.1905C9.21334 12.1905 9.16746 12.1965 9.06084 12.1702C8.96079 12.1455 8.68257 12.0618 8.40305 11.7979L11.1489 8.88931ZM9.15657 8.19047C8.80755 8.19047 8.46342 8.24243 8.13028 8.34061L9.26095 12.1775C9.24324 12.1827 9.20692 12.1905 9.15657 12.1905V8.19047ZM8.1081 8.34728C7.95103 8.39555 7.75745 8.45632 7.57633 8.52579L9.00881 12.2605C9.05017 12.2446 9.12783 12.2185 9.28313 12.1708L8.1081 8.34728ZM10.2361 10.8649L10.3893 10.2341L6.50216 9.29048L6.34902 9.92133L10.2361 10.8649ZM9.20066 11.6143C9.53724 11.4771 9.84988 11.3635 10.1387 11.2721L8.93177 7.45854C8.52726 7.58656 8.11304 7.73811 7.69076 7.91024L9.20066 11.6143ZM10.1463 11.2697C10.3269 11.2117 10.4475 11.1992 10.5181 11.1992V7.19923C9.9715 7.19923 9.43691 7.29644 8.92417 7.46097L10.1463 11.2697ZM10.5181 11.1992C10.6384 11.1992 10.6768 11.2143 10.6592 11.2088C10.6491 11.2056 10.6248 11.1969 10.5914 11.1785C10.5574 11.1598 10.519 11.1338 10.4804 11.0995L13.1341 8.10656C12.3504 7.41172 11.3841 7.19923 10.5181 7.19923V11.1992ZM10.4745 11.0943C10.4224 11.0477 10.3572 10.9684 10.3105 10.8603C10.265 10.7551 10.2598 10.6754 10.2598 10.6514H14.2598C14.2598 9.69031 13.893 8.78478 13.1399 8.11177L10.4745 11.0943ZM10.2598 10.6514C10.2598 10.6296 10.2606 10.6394 10.2564 10.7025C10.2526 10.7585 10.2464 10.836 10.2369 10.9386L14.2202 11.3044C14.2401 11.088 14.2598 10.8448 14.2598 10.6514H10.2598ZM10.2363 10.9459C10.2277 11.0431 10.212 11.1167 10.1955 11.1726L14.0315 12.3063C14.1262 11.9858 14.1898 11.6495 14.2208 11.2971L10.2363 10.9459ZM10.189 11.1951L9.61149 13.237L13.4605 14.3256L14.038 12.2837L10.189 11.1951ZM9.61431 13.2272C9.54299 13.4745 9.48704 13.7312 9.44102 13.9843L13.3765 14.6999C13.4067 14.5339 13.4345 14.4158 13.4577 14.3355L9.61431 13.2272ZM9.43999 13.99C9.39656 14.2329 9.35314 14.5315 9.35314 14.819H13.3531C13.3531 14.8467 13.352 14.8631 13.3519 14.8652C13.3517 14.868 13.352 14.8629 13.3536 14.8488C13.357 14.8195 13.3641 14.769 13.3775 14.6942L9.43999 13.99ZM9.35314 14.819C9.35314 15.2593 9.42948 16.245 10.2799 16.9307L12.7906 13.8167C13.0987 14.0652 13.2398 14.357 13.2993 14.5391C13.3287 14.6289 13.3414 14.7001 13.3471 14.7435C13.353 14.7873 13.3531 14.814 13.3531 14.819H9.35314ZM10.2763 16.9277C10.9553 17.4779 11.764 17.5215 12.1653 17.5215V13.5215C12.1184 13.5215 12.1534 13.5166 12.2419 13.5374C12.3229 13.5565 12.548 13.6203 12.7942 13.8197L10.2763 16.9277ZM12.1653 17.5215C12.5376 17.5215 12.88 17.4564 13.172 17.3762L12.1125 13.519C12.084 13.5269 12.0748 13.5279 12.082 13.5268C12.0893 13.5256 12.1185 13.5215 12.1653 13.5215V17.5215ZM13.1741 17.3756C13.3778 17.3194 13.6335 17.2414 13.867 17.1335L12.1886 13.5027C12.2155 13.4902 12.2332 13.4833 12.2381 13.4814C12.2436 13.4793 12.2423 13.4799 12.2327 13.4832C12.2125 13.49 12.1732 13.5023 12.1104 13.5196L13.1741 17.3756ZM11.0851 14.843L10.9312 15.4723L14.8167 16.4225L14.9706 15.7932L11.0851 14.843ZM10.9996 0C4.92514 0 0 4.92514 0 10.9996H4C4 7.13428 7.13428 4 10.9996 4V0ZM0 10.9996C0 17.0739 4.92492 22 10.9996 22V18C7.1345 18 4 14.8652 4 10.9996H0ZM10.9996 22C17.0741 22 22 17.0741 22 10.9996H18C18 14.865 14.865 18 10.9996 18V22ZM22 10.9996C22 4.92492 17.0739 0 10.9996 0V4C14.8652 4 18 7.1345 18 10.9996H22Z" fill="#4D4D4D" mask="url(#path-1-outside-1)"/>
</g>
<ellipse cx="11.547" cy="6.77336" rx="0.79558" ry="0.79558" fill="#828282"/>
<circle cx="12" cy="7" r="1" fill="#828282"/>
</svg>
